solid OpenSCAD_Model
  facet normal 1 -0 0
    outer loop
      vertex 34 1.99998 2.4
      vertex 34 2 0
      vertex 34 2 2.4
    endloop
  endfacet
  facet normal 1 0 0
    outer loop
      vertex 34 2 0
      vertex 34 1.99998 2.4
      vertex 34 1.99998 0
    endloop
  endfacet
  facet normal 0 0 -1
    outer loop
      vertex 33.4 0 0
      vertex 34 1.99998 0
      vertex 34 0.599999 0
    endloop
  endfacet
  facet normal -0 0 -1
    outer loop
      vertex 34 1.99998 0
      vertex 33.4 0 0
      vertex 34 2 0
    endloop
  endfacet
  facet normal 0 0 -1
    outer loop
      vertex 34 2 0
      vertex 18.9052 24 0
      vertex 34 22 0
    endloop
  endfacet
  facet normal -0 -0 -1
    outer loop
      vertex 33.4 24 0
      vertex 34 22 0
      vertex 18.9052 24 0
    endloop
  endfacet
  facet normal 0 0 -1
    outer loop
      vertex 33.4 0 0
      vertex 34 0.599999 0
      vertex 33.9962 0.532821 0
    endloop
  endfacet
  facet normal 0 0 -1
    outer loop
      vertex 33.4 0 0
      vertex 33.9962 0.532821 0
      vertex 33.985 0.466487 0
    endloop
  endfacet
  facet normal 0 0 -1
    outer loop
      vertex 34 22 0
      vertex 33.4 24 0
      vertex 34 23.4 0
    endloop
  endfacet
  facet normal 0 0 -1
    outer loop
      vertex 33.4 0 0
      vertex 33.985 0.466487 0
      vertex 33.9663 0.401832 0
    endloop
  endfacet
  facet normal 0 0 -1
    outer loop
      vertex 34 23.4 0
      vertex 33.4 24 0
      vertex 33.9962 23.4672 0
    endloop
  endfacet
  facet normal 0 0 -1
    outer loop
      vertex 33.4 0 0
      vertex 33.9663 0.401832 0
      vertex 33.9406 0.339669 0
    endloop
  endfacet
  facet normal 0 0 -1
    outer loop
      vertex 0.599999 0 0
      vertex 34 2 0
      vertex 33.4 0 0
    endloop
  endfacet
  facet normal 0 0 -1
    outer loop
      vertex 33.4 0 0
      vertex 33.9406 0.339669 0
      vertex 33.908 0.28078 0
    endloop
  endfacet
  facet normal 0 0 -1
    outer loop
      vertex 33.9962 23.4672 0
      vertex 33.4 24 0
      vertex 33.985 23.5335 0
    endloop
  endfacet
  facet normal 0 0 -1
    outer loop
      vertex 33.4 0 0
      vertex 33.908 0.28078 0
      vertex 33.8691 0.225905 0
    endloop
  endfacet
  facet normal 0 0 -1
    outer loop
      vertex 33.9663 23.5982 0
      vertex 33.4 24 0
      vertex 33.9406 23.6603 0
    endloop
  endfacet
  facet normal 0 0 -1
    outer loop
      vertex 33.4 0 0
      vertex 33.8691 0.225905 0
      vertex 33.8243 0.175735 0
    endloop
  endfacet
  facet normal 0 0 -1
    outer loop
      vertex 33.9406 23.6603 0
      vertex 33.4 24 0
      vertex 33.908 23.7192 0
    endloop
  endfacet
  facet normal 0 0 -1
    outer loop
      vertex 33.4 0 0
      vertex 33.8243 0.175735 0
      vertex 33.7741 0.1309 0
    endloop
  endfacet
  facet normal 0 0 -1
    outer loop
      vertex 33.908 23.7192 0
      vertex 33.4 24 0
      vertex 33.8691 23.7741 0
    endloop
  endfacet
  facet normal 0 0 -1
    outer loop
      vertex 33.4 0 0
      vertex 33.7741 0.1309 0
      vertex 33.7192 0.0919647 0
    endloop
  endfacet
  facet normal 0 0 -1
    outer loop
      vertex 33.8691 23.7741 0
      vertex 33.4 24 0
      vertex 33.8243 23.8243 0
    endloop
  endfacet
  facet normal 0 0 -1
    outer loop
      vertex 33.4 0 0
      vertex 33.7192 0.0919647 0
      vertex 33.6603 0.0594187 0
    endloop
  endfacet
  facet normal 0 0 -1
    outer loop
      vertex 33.8243 23.8243 0
      vertex 33.4 24 0
      vertex 33.7741 23.8691 0
    endloop
  endfacet
  facet normal 0 0 -1
    outer loop
      vertex 33.4 0 0
      vertex 33.6603 0.0594187 0
      vertex 33.5982 0.0336695 0
    endloop
  endfacet
  facet normal 0 0 -1
    outer loop
      vertex 33.7741 23.8691 0
      vertex 33.4 24 0
      vertex 33.7192 23.908 0
    endloop
  endfacet
  facet normal 0 0 -1
    outer loop
      vertex 33.4 0 0
      vertex 33.5982 0.0336695 0
      vertex 33.5335 0.0150423 0
    endloop
  endfacet
  facet normal 0 0 -1
    outer loop
      vertex 33.7192 23.908 0
      vertex 33.4 24 0
      vertex 33.6603 23.9406 0
    endloop
  endfacet
  facet normal 0 0 -1
    outer loop
      vertex 33.4 0 0
      vertex 33.5335 0.0150423 0
      vertex 33.4672 0.00377178 0
    endloop
  endfacet
  facet normal 0 0 -1
    outer loop
      vertex 33.6603 23.9406 0
      vertex 33.4 24 0
      vertex 33.5982 23.9663 0
    endloop
  endfacet
  facet normal 0 0 -1
    outer loop
      vertex 33.5982 23.9663 0
      vertex 33.4 24 0
      vertex 33.5335 23.985 0
    endloop
  endfacet
  facet normal 0 0 -1
    outer loop
      vertex 33.5335 23.985 0
      vertex 33.4 24 0
      vertex 33.4672 23.9962 0
    endloop
  endfacet
  facet normal 0 0 -1
    outer loop
      vertex 33.985 23.5335 0
      vertex 33.4 24 0
      vertex 33.9663 23.5982 0
    endloop
  endfacet
  facet normal 0 0 -1
    outer loop
      vertex 18.9052 24 0
      vertex 18.8019 24.2678 0
      vertex 18.8878 24.0606 0
    endloop
  endfacet
  facet normal 0 0 -1
    outer loop
      vertex 18.9052 24 0
      vertex 18.6934 24.4641 0
      vertex 18.8019 24.2678 0
    endloop
  endfacet
  facet normal 0 0 -1
    outer loop
      vertex 18.9052 24 0
      vertex 18.5637 24.647 0
      vertex 18.6934 24.4641 0
    endloop
  endfacet
  facet normal 0 0 -1
    outer loop
      vertex 18.9052 24 0
      vertex 18.4142 24.8142 0
      vertex 18.5637 24.647 0
    endloop
  endfacet
  facet normal 0 0 -1
    outer loop
      vertex 18.9052 24 0
      vertex 18.247 24.9637 0
      vertex 18.4142 24.8142 0
    endloop
  endfacet
  facet normal 0 0 -1
    outer loop
      vertex 34 2 0
      vertex 15.0948 24 0
      vertex 18.9052 24 0
    endloop
  endfacet
  facet normal 0 0 -1
    outer loop
      vertex 18.9052 24 0
      vertex 15.0948 24 0
      vertex 18.247 24.9637 0
    endloop
  endfacet
  facet normal -0 0 -1
    outer loop
      vertex 18.247 24.9637 0
      vertex 15.0948 24 0
      vertex 18.0641 25.0934 0
    endloop
  endfacet
  facet normal -0 0 -1
    outer loop
      vertex 18.0641 25.0934 0
      vertex 15.0948 24 0
      vertex 17.8678 25.2019 0
    endloop
  endfacet
  facet normal -0 0 -1
    outer loop
      vertex 17.8678 25.2019 0
      vertex 15.0948 24 0
      vertex 17.6606 25.2878 0
    endloop
  endfacet
  facet normal -0 0 -1
    outer loop
      vertex 17.6606 25.2878 0
      vertex 15.0948 24 0
      vertex 17.445 25.3499 0
    endloop
  endfacet
  facet normal -0 0 -1
    outer loop
      vertex 17.445 25.3499 0
      vertex 15.0948 24 0
      vertex 17.2239 25.3874 0
    endloop
  endfacet
  facet normal -0 0 -1
    outer loop
      vertex 17.2239 25.3874 0
      vertex 15.0948 24 0
      vertex 17 25.4 0
    endloop
  endfacet
  facet normal 0 0 -1
    outer loop
      vertex 17 25.4 0
      vertex 15.0948 24 0
      vertex 16.7761 25.3874 0
    endloop
  endfacet
  facet normal 0 0 -1
    outer loop
      vertex 16.7761 25.3874 0
      vertex 15.0948 24 0
      vertex 16.555 25.3499 0
    endloop
  endfacet
  facet normal 0 0 -1
    outer loop
      vertex 16.555 25.3499 0
      vertex 15.0948 24 0
      vertex 16.3394 25.2878 0
    endloop
  endfacet
  facet normal 0 0 -1
    outer loop
      vertex 16.3394 25.2878 0
      vertex 15.0948 24 0
      vertex 16.1322 25.2019 0
    endloop
  endfacet
  facet normal 0 0 -1
    outer loop
      vertex 16.1322 25.2019 0
      vertex 15.0948 24 0
      vertex 15.9359 25.0934 0
    endloop
  endfacet
  facet normal 0 0 -1
    outer loop
      vertex 15.9359 25.0934 0
      vertex 15.0948 24 0
      vertex 15.753 24.9637 0
    endloop
  endfacet
  facet normal 0 0 -1
    outer loop
      vertex 15.753 24.9637 0
      vertex 15.0948 24 0
      vertex 15.5858 24.8142 0
    endloop
  endfacet
  facet normal 0 0 -1
    outer loop
      vertex 15.5858 24.8142 0
      vertex 15.0948 24 0
      vertex 15.4363 24.647 0
    endloop
  endfacet
  facet normal 0 0 -1
    outer loop
      vertex 15.4363 24.647 0
      vertex 15.0948 24 0
      vertex 15.3066 24.4641 0
    endloop
  endfacet
  facet normal 0 0 -1
    outer loop
      vertex 15.3066 24.4641 0
      vertex 15.0948 24 0
      vertex 15.1981 24.2678 0
    endloop
  endfacet
  facet normal 0 0 -1
    outer loop
      vertex 15.1981 24.2678 0
      vertex 15.0948 24 0
      vertex 15.1122 24.0606 0
    endloop
  endfacet
  facet normal -0 0 -1
    outer loop
      vertex 34 2 0
      vertex 0.599999 0 0
      vertex 15.0948 24 0
    endloop
  endfacet
  facet normal 0 0 -1
    outer loop
      vertex 0 0.599999 0
      vertex 15.0948 24 0
      vertex 0.599999 0 0
    endloop
  endfacet
  facet normal 0 0 -1
    outer loop
      vertex 0 0.599999 0
      vertex 0.599999 0 0
      vertex 0.532821 0.00377178 0
    endloop
  endfacet
  facet normal 0 0 -1
    outer loop
      vertex 0 23.4 0
      vertex 15.0948 24 0
      vertex 0 0.599999 0
    endloop
  endfacet
  facet normal 0 0 -1
    outer loop
      vertex 0 0.599999 0
      vertex 0.532821 0.00377178 0
      vertex 0.466487 0.0150423 0
    endloop
  endfacet
  facet normal -0 0 -1
    outer loop
      vertex 15.0948 24 0
      vertex 0 23.4 0
      vertex 0.599999 24 0
    endloop
  endfacet
  facet normal 0 0 -1
    outer loop
      vertex 0 0.599999 0
      vertex 0.466487 0.0150423 0
      vertex 0.401832 0.0336695 0
    endloop
  endfacet
  facet normal 0 0 -1
    outer loop
      vertex 0.599999 24 0
      vertex 0 23.4 0
      vertex 0.532821 23.9962 0
    endloop
  endfacet
  facet normal 0 0 -1
    outer loop
      vertex 0 0.599999 0
      vertex 0.401832 0.0336695 0
      vertex 0.339669 0.0594187 0
    endloop
  endfacet
  facet normal 0 0 -1
    outer loop
      vertex 0.532821 23.9962 0
      vertex 0 23.4 0
      vertex 0.466487 23.985 0
    endloop
  endfacet
  facet normal 0 0 -1
    outer loop
      vertex 0 0.599999 0
      vertex 0.339669 0.0594187 0
      vertex 0.28078 0.0919647 0
    endloop
  endfacet
  facet normal 0 0 -1
    outer loop
      vertex 0.466487 23.985 0
      vertex 0 23.4 0
      vertex 0.401832 23.9663 0
    endloop
  endfacet
  facet normal 0 0 -1
    outer loop
      vertex 0 0.599999 0
      vertex 0.28078 0.0919647 0
      vertex 0.225905 0.1309 0
    endloop
  endfacet
  facet normal 0 0 -1
    outer loop
      vertex 0.401832 23.9663 0
      vertex 0 23.4 0
      vertex 0.339669 23.9406 0
    endloop
  endfacet
  facet normal 0 0 -1
    outer loop
      vertex 0 0.599999 0
      vertex 0.225905 0.1309 0
      vertex 0.175735 0.175735 0
    endloop
  endfacet
  facet normal 0 0 -1
    outer loop
      vertex 0.339669 23.9406 0
      vertex 0 23.4 0
      vertex 0.28078 23.908 0
    endloop
  endfacet
  facet normal 0 0 -1
    outer loop
      vertex 0 0.599999 0
      vertex 0.175735 0.175735 0
      vertex 0.1309 0.225905 0
    endloop
  endfacet
  facet normal 0 0 -1
    outer loop
      vertex 0.28078 23.908 0
      vertex 0 23.4 0
      vertex 0.225905 23.8691 0
    endloop
  endfacet
  facet normal 0 0 -1
    outer loop
      vertex 0 0.599999 0
      vertex 0.1309 0.225905 0
      vertex 0.0919647 0.28078 0
    endloop
  endfacet
  facet normal 0 0 -1
    outer loop
      vertex 0.225905 23.8691 0
      vertex 0 23.4 0
      vertex 0.175735 23.8243 0
    endloop
  endfacet
  facet normal 0 0 -1
    outer loop
      vertex 0 0.599999 0
      vertex 0.0919647 0.28078 0
      vertex 0.0594187 0.339669 0
    endloop
  endfacet
  facet normal 0 0 -1
    outer loop
      vertex 0.175735 23.8243 0
      vertex 0 23.4 0
      vertex 0.1309 23.7741 0
    endloop
  endfacet
  facet normal 0 0 -1
    outer loop
      vertex 0 0.599999 0
      vertex 0.0594187 0.339669 0
      vertex 0.0336695 0.401832 0
    endloop
  endfacet
  facet normal 0 0 -1
    outer loop
      vertex 0.1309 23.7741 0
      vertex 0 23.4 0
      vertex 0.0919647 23.7192 0
    endloop
  endfacet
  facet normal 0 0 -1
    outer loop
      vertex 0 0.599999 0
      vertex 0.0336695 0.401832 0
      vertex 0.0150423 0.466487 0
    endloop
  endfacet
  facet normal 0 0 -1
    outer loop
      vertex 0.0919647 23.7192 0
      vertex 0 23.4 0
      vertex 0.0594187 23.6603 0
    endloop
  endfacet
  facet normal 0 0 -1
    outer loop
      vertex 0 0.599999 0
      vertex 0.0150423 0.466487 0
      vertex 0.00377178 0.532821 0
    endloop
  endfacet
  facet normal 0 0 -1
    outer loop
      vertex 0.0594187 23.6603 0
      vertex 0 23.4 0
      vertex 0.0336695 23.5982 0
    endloop
  endfacet
  facet normal 0 0 -1
    outer loop
      vertex 0.0336695 23.5982 0
      vertex 0 23.4 0
      vertex 0.0150423 23.5335 0
    endloop
  endfacet
  facet normal 0 0 -1
    outer loop
      vertex 0.0150423 23.5335 0
      vertex 0 23.4 0
      vertex 0.00377178 23.4672 0
    endloop
  endfacet
  facet normal 1 -0 0
    outer loop
      vertex 34 2 2.4
      vertex 34 22 0
      vertex 34 22 2.4
    endloop
  endfacet
  facet normal 1 0 0
    outer loop
      vertex 34 22 0
      vertex 34 2 2.4
      vertex 34 2 0
    endloop
  endfacet
  facet normal 0 -1 0
    outer loop
      vertex 0.599999 0 14
      vertex 2 0 2.4
      vertex 2 0 14
    endloop
  endfacet
  facet normal 0 -1 0
    outer loop
      vertex 0.599999 0 0
      vertex 2 0 2.4
      vertex 0.599999 0 14
    endloop
  endfacet
  facet normal 0 -1 0
    outer loop
      vertex 33.4 0 0
      vertex 2 0 2.4
      vertex 0.599999 0 0
    endloop
  endfacet
  facet normal 0 -1 0
    outer loop
      vertex 2 0 2.4
      vertex 33.4 0 0
      vertex 33.4 0 2.4
    endloop
  endfacet
  facet normal -1 0 0
    outer loop
      vertex 0 0.599999 0
      vertex 0 23.4 14
      vertex 0 23.4 0
    endloop
  endfacet
  facet normal -1 -0 0
    outer loop
      vertex 0 23.4 14
      vertex 0 0.599999 0
      vertex 0 0.599999 14
    endloop
  endfacet
  facet normal 0 1 0
    outer loop
      vertex 15.0948 24 2.4
      vertex 15.0948 24 0
      vertex 2 24 2.4
    endloop
  endfacet
  facet normal 0 1 -0
    outer loop
      vertex 2 24 2.4
      vertex 0.599999 24 14
      vertex 2 24 14
    endloop
  endfacet
  facet normal 0 1 0
    outer loop
      vertex 2 24 2.4
      vertex 0.599999 24 0
      vertex 0.599999 24 14
    endloop
  endfacet
  facet normal 0 1 0
    outer loop
      vertex 0.599999 24 0
      vertex 2 24 2.4
      vertex 15.0948 24 0
    endloop
  endfacet
  facet normal 0 1 -0
    outer loop
      vertex 33.4 24 0
      vertex 18.9052 24 2.4
      vertex 33.4 24 2.4
    endloop
  endfacet
  facet normal 0 1 0
    outer loop
      vertex 18.9052 24 2.4
      vertex 33.4 24 0
      vertex 18.9052 24 0
    endloop
  endfacet
  facet normal 0 0 1
    outer loop
      vertex 15.0126 23.6239 2.4
      vertex 2 24 2.4
      vertex 15 23.4 2.4
    endloop
  endfacet
  facet normal 0 0 1
    outer loop
      vertex 15.0501 23.845 2.4
      vertex 2 24 2.4
      vertex 15.0126 23.6239 2.4
    endloop
  endfacet
  facet normal -0 0 1
    outer loop
      vertex 2 24 2.4
      vertex 15.0501 23.845 2.4
      vertex 15.0948 24 2.4
    endloop
  endfacet
  facet normal 0 0 1
    outer loop
      vertex 33.4 24 2.4
      vertex 34 22 2.4
      vertex 34 23.4 2.4
    endloop
  endfacet
  facet normal 0 0 1
    outer loop
      vertex 18.247 21.8363 2.4
      vertex 34 22 2.4
      vertex 18.4142 21.9858 2.4
    endloop
  endfacet
  facet normal 0 0 1
    outer loop
      vertex 34 22 2.4
      vertex 18.247 21.8363 2.4
      vertex 34 2 2.4
    endloop
  endfacet
  facet normal 0 0 1
    outer loop
      vertex 33.4 24 2.4
      vertex 34 23.4 2.4
      vertex 33.9962 23.4672 2.4
    endloop
  endfacet
  facet normal -0 0 1
    outer loop
      vertex 18.0641 21.7066 2.4
      vertex 34 2 2.4
      vertex 18.247 21.8363 2.4
    endloop
  endfacet
  facet normal 0 0 1
    outer loop
      vertex 33.4 24 2.4
      vertex 33.9962 23.4672 2.4
      vertex 33.985 23.5335 2.4
    endloop
  endfacet
  facet normal -0 0 1
    outer loop
      vertex 17.8678 21.5981 2.4
      vertex 34 2 2.4
      vertex 18.0641 21.7066 2.4
    endloop
  endfacet
  facet normal 0 0 1
    outer loop
      vertex 33.4 24 2.4
      vertex 33.985 23.5335 2.4
      vertex 33.9663 23.5982 2.4
    endloop
  endfacet
  facet normal -0 0 1
    outer loop
      vertex 17.6606 21.5122 2.4
      vertex 34 2 2.4
      vertex 17.8678 21.5981 2.4
    endloop
  endfacet
  facet normal 0 0 1
    outer loop
      vertex 33.4 24 2.4
      vertex 33.9663 23.5982 2.4
      vertex 33.9406 23.6603 2.4
    endloop
  endfacet
  facet normal -0 0 1
    outer loop
      vertex 17.445 21.4501 2.4
      vertex 34 2 2.4
      vertex 17.6606 21.5122 2.4
    endloop
  endfacet
  facet normal 0 0 1
    outer loop
      vertex 33.4 24 2.4
      vertex 33.9406 23.6603 2.4
      vertex 33.908 23.7192 2.4
    endloop
  endfacet
  facet normal 0 0 1
    outer loop
      vertex 34 0.599999 2.4
      vertex 33.4 0 2.4
      vertex 33.9962 0.532821 2.4
    endloop
  endfacet
  facet normal 0 0 1
    outer loop
      vertex 33.4 24 2.4
      vertex 33.908 23.7192 2.4
      vertex 33.8691 23.7741 2.4
    endloop
  endfacet
  facet normal -0 0 1
    outer loop
      vertex 18.9499 22.955 2.4
      vertex 34 22 2.4
      vertex 33.4 24 2.4
    endloop
  endfacet
  facet normal 0 0 1
    outer loop
      vertex 33.4 24 2.4
      vertex 33.8691 23.7741 2.4
      vertex 33.8243 23.8243 2.4
    endloop
  endfacet
  facet normal 0 0 1
    outer loop
      vertex 33.985 0.466487 2.4
      vertex 33.4 0 2.4
      vertex 33.9663 0.401832 2.4
    endloop
  endfacet
  facet normal 0 0 1
    outer loop
      vertex 33.4 24 2.4
      vertex 33.8243 23.8243 2.4
      vertex 33.7741 23.8691 2.4
    endloop
  endfacet
  facet normal 0 0 1
    outer loop
      vertex 33.908 0.28078 2.4
      vertex 33.4 0 2.4
      vertex 33.8691 0.225905 2.4
    endloop
  endfacet
  facet normal 0 0 1
    outer loop
      vertex 33.4 24 2.4
      vertex 33.7741 23.8691 2.4
      vertex 33.7192 23.908 2.4
    endloop
  endfacet
  facet normal 0 0 1
    outer loop
      vertex 33.8691 0.225905 2.4
      vertex 33.4 0 2.4
      vertex 33.8243 0.175735 2.4
    endloop
  endfacet
  facet normal 0 0 1
    outer loop
      vertex 33.4 24 2.4
      vertex 33.7192 23.908 2.4
      vertex 33.6603 23.9406 2.4
    endloop
  endfacet
  facet normal 0 0 1
    outer loop
      vertex 33.8243 0.175735 2.4
      vertex 33.4 0 2.4
      vertex 33.7741 0.1309 2.4
    endloop
  endfacet
  facet normal 0 0 1
    outer loop
      vertex 33.4 24 2.4
      vertex 33.6603 23.9406 2.4
      vertex 33.5982 23.9663 2.4
    endloop
  endfacet
  facet normal 0 0 1
    outer loop
      vertex 33.7741 0.1309 2.4
      vertex 33.4 0 2.4
      vertex 33.7192 0.0919647 2.4
    endloop
  endfacet
  facet normal 0 0 1
    outer loop
      vertex 33.4 24 2.4
      vertex 33.5982 23.9663 2.4
      vertex 33.5335 23.985 2.4
    endloop
  endfacet
  facet normal 0 0 1
    outer loop
      vertex 33.7192 0.0919647 2.4
      vertex 33.4 0 2.4
      vertex 33.6603 0.0594187 2.4
    endloop
  endfacet
  facet normal 0 0 1
    outer loop
      vertex 33.4 24 2.4
      vertex 33.5335 23.985 2.4
      vertex 33.4672 23.9962 2.4
    endloop
  endfacet
  facet normal 0 0 1
    outer loop
      vertex 33.6603 0.0594187 2.4
      vertex 33.4 0 2.4
      vertex 33.5982 0.0336695 2.4
    endloop
  endfacet
  facet normal 0 0 1
    outer loop
      vertex 33.5982 0.0336695 2.4
      vertex 33.4 0 2.4
      vertex 33.5335 0.0150423 2.4
    endloop
  endfacet
  facet normal 0 0 1
    outer loop
      vertex 33.5335 0.0150423 2.4
      vertex 33.4 0 2.4
      vertex 33.4672 0.00377178 2.4
    endloop
  endfacet
  facet normal 0 0 1
    outer loop
      vertex 18.9874 23.1761 2.4
      vertex 33.4 24 2.4
      vertex 19 23.4 2.4
    endloop
  endfacet
  facet normal 0 0 1
    outer loop
      vertex 33.4 24 2.4
      vertex 18.9874 23.6239 2.4
      vertex 19 23.4 2.4
    endloop
  endfacet
  facet normal 0 0 1
    outer loop
      vertex 33.4 24 2.4
      vertex 18.9499 23.845 2.4
      vertex 18.9874 23.6239 2.4
    endloop
  endfacet
  facet normal 0 -0 1
    outer loop
      vertex 18.9499 23.845 2.4
      vertex 33.4 24 2.4
      vertex 18.9052 24 2.4
    endloop
  endfacet
  facet normal 0 0 1
    outer loop
      vertex 18.9499 22.955 2.4
      vertex 33.4 24 2.4
      vertex 18.9874 23.1761 2.4
    endloop
  endfacet
  facet normal 0 0 1
    outer loop
      vertex 34 22 2.4
      vertex 18.9499 22.955 2.4
      vertex 18.8878 22.7394 2.4
    endloop
  endfacet
  facet normal 0 0 1
    outer loop
      vertex 34 22 2.4
      vertex 18.8878 22.7394 2.4
      vertex 18.8019 22.5322 2.4
    endloop
  endfacet
  facet normal 0 0 1
    outer loop
      vertex 34 22 2.4
      vertex 18.8019 22.5322 2.4
      vertex 18.6934 22.3359 2.4
    endloop
  endfacet
  facet normal 0 0 1
    outer loop
      vertex 34 22 2.4
      vertex 18.6934 22.3359 2.4
      vertex 18.5637 22.153 2.4
    endloop
  endfacet
  facet normal 0 0 1
    outer loop
      vertex 34 22 2.4
      vertex 18.5637 22.153 2.4
      vertex 18.4142 21.9858 2.4
    endloop
  endfacet
  facet normal 0 0 1
    outer loop
      vertex 33.9406 0.339669 2.4
      vertex 33.4 0 2.4
      vertex 33.908 0.28078 2.4
    endloop
  endfacet
  facet normal 0 0 1
    outer loop
      vertex 33.9663 0.401832 2.4
      vertex 33.4 0 2.4
      vertex 33.9406 0.339669 2.4
    endloop
  endfacet
  facet normal 0 0 1
    outer loop
      vertex 33.9962 0.532821 2.4
      vertex 33.4 0 2.4
      vertex 33.985 0.466487 2.4
    endloop
  endfacet
  facet normal 0 0 1
    outer loop
      vertex 34 1.99998 2.4
      vertex 33.4 0 2.4
      vertex 34 0.599999 2.4
    endloop
  endfacet
  facet normal -0 0 1
    outer loop
      vertex 17.2239 21.4126 2.4
      vertex 34 2 2.4
      vertex 17.445 21.4501 2.4
    endloop
  endfacet
  facet normal 0 -0 1
    outer loop
      vertex 33.4 0 2.4
      vertex 34 2 2.4
      vertex 17.2239 21.4126 2.4
    endloop
  endfacet
  facet normal 0 0 1
    outer loop
      vertex 34 2 2.4
      vertex 33.4 0 2.4
      vertex 34 1.99998 2.4
    endloop
  endfacet
  facet normal -0 0 1
    outer loop
      vertex 17 21.4 2.4
      vertex 33.4 0 2.4
      vertex 17.2239 21.4126 2.4
    endloop
  endfacet
  facet normal 0 0 1
    outer loop
      vertex 2 0 2.4
      vertex 17 21.4 2.4
      vertex 16.7761 21.4126 2.4
    endloop
  endfacet
  facet normal 0 0 1
    outer loop
      vertex 2 0 2.4
      vertex 16.7761 21.4126 2.4
      vertex 16.555 21.4501 2.4
    endloop
  endfacet
  facet normal 0 0 1
    outer loop
      vertex 2 0 2.4
      vertex 16.555 21.4501 2.4
      vertex 16.3394 21.5122 2.4
    endloop
  endfacet
  facet normal 0 0 1
    outer loop
      vertex 2 0 2.4
      vertex 16.3394 21.5122 2.4
      vertex 16.1322 21.5981 2.4
    endloop
  endfacet
  facet normal 0 0 1
    outer loop
      vertex 2 0 2.4
      vertex 16.1322 21.5981 2.4
      vertex 15.9359 21.7066 2.4
    endloop
  endfacet
  facet normal 0 0 1
    outer loop
      vertex 2 0 2.4
      vertex 15.9359 21.7066 2.4
      vertex 15.753 21.8363 2.4
    endloop
  endfacet
  facet normal 0 0 1
    outer loop
      vertex 2 24 2.4
      vertex 15.753 21.8363 2.4
      vertex 15.5858 21.9858 2.4
    endloop
  endfacet
  facet normal 0 0 1
    outer loop
      vertex 2 24 2.4
      vertex 15.5858 21.9858 2.4
      vertex 15.4363 22.153 2.4
    endloop
  endfacet
  facet normal 0 0 1
    outer loop
      vertex 2 24 2.4
      vertex 15.0126 23.1761 2.4
      vertex 15 23.4 2.4
    endloop
  endfacet
  facet normal 0 0 1
    outer loop
      vertex 2 24 2.4
      vertex 15.0501 22.955 2.4
      vertex 15.0126 23.1761 2.4
    endloop
  endfacet
  facet normal 0 0 1
    outer loop
      vertex 2 24 2.4
      vertex 15.1122 22.7394 2.4
      vertex 15.0501 22.955 2.4
    endloop
  endfacet
  facet normal 0 0 1
    outer loop
      vertex 2 24 2.4
      vertex 15.1981 22.5322 2.4
      vertex 15.1122 22.7394 2.4
    endloop
  endfacet
  facet normal 0 0 1
    outer loop
      vertex 2 24 2.4
      vertex 15.3066 22.3359 2.4
      vertex 15.1981 22.5322 2.4
    endloop
  endfacet
  facet normal 0 0 1
    outer loop
      vertex 2 24 2.4
      vertex 15.4363 22.153 2.4
      vertex 15.3066 22.3359 2.4
    endloop
  endfacet
  facet normal 0 0 1
    outer loop
      vertex 15.753 21.8363 2.4
      vertex 2 24 2.4
      vertex 2 0 2.4
    endloop
  endfacet
  facet normal 0 0 1
    outer loop
      vertex 17 21.4 2.4
      vertex 2 0 2.4
      vertex 33.4 0 2.4
    endloop
  endfacet
  facet normal -0.985871 -0.167505 0
    outer loop
      vertex 0.0150423 0.466487 0
      vertex 0.00377178 0.532821 14
      vertex 0.00377178 0.532821 0
    endloop
  endfacet
  facet normal -0.985871 -0.167505 0
    outer loop
      vertex 0.00377178 0.532821 14
      vertex 0.0150423 0.466487 0
      vertex 0.0150423 0.466487 14
    endloop
  endfacet
  facet normal -0.27784 0.960627 0
    outer loop
      vertex 0.466487 23.985 0
      vertex 0.401832 23.9663 14
      vertex 0.466487 23.985 14
    endloop
  endfacet
  facet normal -0.27784 0.960627 0
    outer loop
      vertex 0.401832 23.9663 14
      vertex 0.466487 23.985 0
      vertex 0.401832 23.9663 0
    endloop
  endfacet
  facet normal -0.0560578 -0.998428 0
    outer loop
      vertex 0.532821 0.00377178 0
      vertex 0.599999 0 14
      vertex 0.532821 0.00377178 14
    endloop
  endfacet
  facet normal -0.0560578 -0.998428 -0
    outer loop
      vertex 0.599999 0 14
      vertex 0.532821 0.00377178 0
      vertex 0.599999 0 0
    endloop
  endfacet
  facet normal -0.0564759 0.998404 0
    outer loop
      vertex 0.599999 24 0
      vertex 0.532821 23.9962 14
      vertex 0.599999 24 14
    endloop
  endfacet
  facet normal -0.0564759 0.998404 0
    outer loop
      vertex 0.532821 23.9962 14
      vertex 0.599999 24 0
      vertex 0.532821 23.9962 0
    endloop
  endfacet
  facet normal -0.998429 0.0560395 0
    outer loop
      vertex 0 23.4 0
      vertex 0.00377178 23.4672 14
      vertex 0.00377178 23.4672 0
    endloop
  endfacet
  facet normal -0.998429 0.0560395 0
    outer loop
      vertex 0.00377178 23.4672 14
      vertex 0 23.4 0
      vertex 0 23.4 14
    endloop
  endfacet
  facet normal -0.815565 -0.578665 0
    outer loop
      vertex 0.1309 0.225905 0
      vertex 0.0919647 0.28078 14
      vertex 0.0919647 0.28078 0
    endloop
  endfacet
  facet normal -0.815565 -0.578665 0
    outer loop
      vertex 0.0919647 0.28078 14
      vertex 0.1309 0.225905 0
      vertex 0.1309 0.225905 14
    endloop
  endfacet
  facet normal -0.92374 0.38302 0
    outer loop
      vertex 0.0336695 23.5982 0
      vertex 0.0594187 23.6603 14
      vertex 0.0594187 23.6603 0
    endloop
  endfacet
  facet normal -0.92374 0.38302 0
    outer loop
      vertex 0.0594187 23.6603 14
      vertex 0.0336695 23.5982 0
      vertex 0.0336695 23.5982 14
    endloop
  endfacet
  facet normal -0.745837 0.666128 0
    outer loop
      vertex 0.1309 23.7741 0
      vertex 0.175735 23.8243 14
      vertex 0.175735 23.8243 0
    endloop
  endfacet
  facet normal -0.745837 0.666128 0
    outer loop
      vertex 0.175735 23.8243 14
      vertex 0.1309 23.7741 0
      vertex 0.1309 23.7741 14
    endloop
  endfacet
  facet normal -0.578665 -0.815565 0
    outer loop
      vertex 0.225905 0.1309 0
      vertex 0.28078 0.0919647 14
      vertex 0.225905 0.1309 14
    endloop
  endfacet
  facet normal -0.578665 -0.815565 -0
    outer loop
      vertex 0.28078 0.0919647 14
      vertex 0.225905 0.1309 0
      vertex 0.28078 0.0919647 0
    endloop
  endfacet
  facet normal -0.960916 -0.276841 0
    outer loop
      vertex 0.0336695 0.401832 0
      vertex 0.0150423 0.466487 14
      vertex 0.0150423 0.466487 0
    endloop
  endfacet
  facet normal -0.960916 -0.276841 0
    outer loop
      vertex 0.0150423 0.466487 14
      vertex 0.0336695 0.401832 0
      vertex 0.0336695 0.401832 14
    endloop
  endfacet
  facet normal -0.998428 -0.0560578 0
    outer loop
      vertex 0.00377178 0.532821 0
      vertex 0 0.599999 14
      vertex 0 0.599999 0
    endloop
  endfacet
  facet normal -0.998428 -0.0560578 0
    outer loop
      vertex 0 0.599999 14
      vertex 0.00377178 0.532821 0
      vertex 0.00377178 0.532821 14
    endloop
  endfacet
  facet normal -0.382065 0.924136 0
    outer loop
      vertex 0.401832 23.9663 0
      vertex 0.339669 23.9406 14
      vertex 0.401832 23.9663 14
    endloop
  endfacet
  facet normal -0.382065 0.924136 0
    outer loop
      vertex 0.339669 23.9406 14
      vertex 0.401832 23.9663 0
      vertex 0.339669 23.9406 0
    endloop
  endfacet
  facet normal -0.167505 -0.985871 0
    outer loop
      vertex 0.466487 0.0150423 0
      vertex 0.532821 0.00377178 14
      vertex 0.466487 0.0150423 14
    endloop
  endfacet
  facet normal -0.167505 -0.985871 -0
    outer loop
      vertex 0.532821 0.00377178 14
      vertex 0.466487 0.0150423 0
      vertex 0.532821 0.00377178 0
    endloop
  endfacet
  facet normal -0.276841 -0.960916 0
    outer loop
      vertex 0.401832 0.0336695 0
      vertex 0.466487 0.0150423 14
      vertex 0.401832 0.0336695 14
    endloop
  endfacet
  facet normal -0.276841 -0.960916 -0
    outer loop
      vertex 0.466487 0.0150423 14
      vertex 0.401832 0.0336695 0
      vertex 0.466487 0.0150423 0
    endloop
  endfacet
  facet normal -0.382689 -0.923877 0
    outer loop
      vertex 0.339669 0.0594187 0
      vertex 0.401832 0.0336695 14
      vertex 0.339669 0.0594187 14
    endloop
  endfacet
  facet normal -0.382689 -0.923877 -0
    outer loop
      vertex 0.401832 0.0336695 14
      vertex 0.339669 0.0594187 0
      vertex 0.401832 0.0336695 0
    endloop
  endfacet
  facet normal -0.923877 -0.382689 0
    outer loop
      vertex 0.0594187 0.339669 0
      vertex 0.0336695 0.401832 14
      vertex 0.0336695 0.401832 0
    endloop
  endfacet
  facet normal -0.923877 -0.382689 0
    outer loop
      vertex 0.0336695 0.401832 14
      vertex 0.0594187 0.339669 0
      vertex 0.0594187 0.339669 14
    endloop
  endfacet
  facet normal -0.48371 -0.875228 0
    outer loop
      vertex 0.28078 0.0919647 0
      vertex 0.339669 0.0594187 14
      vertex 0.28078 0.0919647 14
    endloop
  endfacet
  facet normal -0.48371 -0.875228 -0
    outer loop
      vertex 0.339669 0.0594187 14
      vertex 0.28078 0.0919647 0
      vertex 0.339669 0.0594187 0
    endloop
  endfacet
  facet normal 0 0 1
    outer loop
      vertex 0 23.4 14
      vertex 2 24 14
      vertex 0.599999 24 14
    endloop
  endfacet
  facet normal 0 0 1
    outer loop
      vertex 2 24 14
      vertex 0 23.4 14
      vertex 2 0 14
    endloop
  endfacet
  facet normal 0 0 1
    outer loop
      vertex 0 23.4 14
      vertex 0.599999 24 14
      vertex 0.532821 23.9962 14
    endloop
  endfacet
  facet normal -0 0 1
    outer loop
      vertex 0 0.599999 14
      vertex 2 0 14
      vertex 0 23.4 14
    endloop
  endfacet
  facet normal 0 0 1
    outer loop
      vertex 0 23.4 14
      vertex 0.532821 23.9962 14
      vertex 0.466487 23.985 14
    endloop
  endfacet
  facet normal 0 0 1
    outer loop
      vertex 2 0 14
      vertex 0 0.599999 14
      vertex 0.599999 0 14
    endloop
  endfacet
  facet normal 0 0 1
    outer loop
      vertex 0 23.4 14
      vertex 0.466487 23.985 14
      vertex 0.401832 23.9663 14
    endloop
  endfacet
  facet normal 0 0 1
    outer loop
      vertex 0.599999 0 14
      vertex 0 0.599999 14
      vertex 0.532821 0.00377178 14
    endloop
  endfacet
  facet normal 0 0 1
    outer loop
      vertex 0 23.4 14
      vertex 0.401832 23.9663 14
      vertex 0.339669 23.9406 14
    endloop
  endfacet
  facet normal 0 0 1
    outer loop
      vertex 0.532821 0.00377178 14
      vertex 0 0.599999 14
      vertex 0.466487 0.0150423 14
    endloop
  endfacet
  facet normal 0 0 1
    outer loop
      vertex 0 23.4 14
      vertex 0.339669 23.9406 14
      vertex 0.28078 23.908 14
    endloop
  endfacet
  facet normal 0 0 1
    outer loop
      vertex 0.466487 0.0150423 14
      vertex 0 0.599999 14
      vertex 0.401832 0.0336695 14
    endloop
  endfacet
  facet normal 0 0 1
    outer loop
      vertex 0 23.4 14
      vertex 0.28078 23.908 14
      vertex 0.225905 23.8691 14
    endloop
  endfacet
  facet normal 0 0 1
    outer loop
      vertex 0.401832 0.0336695 14
      vertex 0 0.599999 14
      vertex 0.339669 0.0594187 14
    endloop
  endfacet
  facet normal 0 0 1
    outer loop
      vertex 0 23.4 14
      vertex 0.225905 23.8691 14
      vertex 0.175735 23.8243 14
    endloop
  endfacet
  facet normal 0 0 1
    outer loop
      vertex 0.339669 0.0594187 14
      vertex 0 0.599999 14
      vertex 0.28078 0.0919647 14
    endloop
  endfacet
  facet normal 0 0 1
    outer loop
      vertex 0 23.4 14
      vertex 0.175735 23.8243 14
      vertex 0.1309 23.7741 14
    endloop
  endfacet
  facet normal 0 0 1
    outer loop
      vertex 0.28078 0.0919647 14
      vertex 0 0.599999 14
      vertex 0.225905 0.1309 14
    endloop
  endfacet
  facet normal 0 0 1
    outer loop
      vertex 0 23.4 14
      vertex 0.1309 23.7741 14
      vertex 0.0919647 23.7192 14
    endloop
  endfacet
  facet normal 0 0 1
    outer loop
      vertex 0.225905 0.1309 14
      vertex 0 0.599999 14
      vertex 0.175735 0.175735 14
    endloop
  endfacet
  facet normal 0 0 1
    outer loop
      vertex 0 23.4 14
      vertex 0.0919647 23.7192 14
      vertex 0.0594187 23.6603 14
    endloop
  endfacet
  facet normal 0 0 1
    outer loop
      vertex 0.175735 0.175735 14
      vertex 0 0.599999 14
      vertex 0.1309 0.225905 14
    endloop
  endfacet
  facet normal 0 0 1
    outer loop
      vertex 0 23.4 14
      vertex 0.0594187 23.6603 14
      vertex 0.0336695 23.5982 14
    endloop
  endfacet
  facet normal 0 0 1
    outer loop
      vertex 0.1309 0.225905 14
      vertex 0 0.599999 14
      vertex 0.0919647 0.28078 14
    endloop
  endfacet
  facet normal 0 0 1
    outer loop
      vertex 0 23.4 14
      vertex 0.0336695 23.5982 14
      vertex 0.0150423 23.5335 14
    endloop
  endfacet
  facet normal 0 0 1
    outer loop
      vertex 0.0919647 0.28078 14
      vertex 0 0.599999 14
      vertex 0.0594187 0.339669 14
    endloop
  endfacet
  facet normal 0 0 1
    outer loop
      vertex 0 23.4 14
      vertex 0.0150423 23.5335 14
      vertex 0.00377178 23.4672 14
    endloop
  endfacet
  facet normal 0 0 1
    outer loop
      vertex 0.0594187 0.339669 14
      vertex 0 0.599999 14
      vertex 0.0336695 0.401832 14
    endloop
  endfacet
  facet normal 0 0 1
    outer loop
      vertex 0.0336695 0.401832 14
      vertex 0 0.599999 14
      vertex 0.0150423 0.466487 14
    endloop
  endfacet
  facet normal 0 0 1
    outer loop
      vertex 0.0150423 0.466487 14
      vertex 0 0.599999 14
      vertex 0.00377178 0.532821 14
    endloop
  endfacet
  facet normal -0.875267 0.483641 0
    outer loop
      vertex 0.0594187 23.6603 0
      vertex 0.0919647 23.7192 14
      vertex 0.0919647 23.7192 0
    endloop
  endfacet
  facet normal -0.875267 0.483641 0
    outer loop
      vertex 0.0919647 23.7192 14
      vertex 0.0594187 23.6603 0
      vertex 0.0594187 23.6603 14
    endloop
  endfacet
  facet normal -0.815689 0.57849 0
    outer loop
      vertex 0.0919647 23.7192 0
      vertex 0.1309 23.7741 14
      vertex 0.1309 23.7741 0
    endloop
  endfacet
  facet normal -0.815689 0.57849 0
    outer loop
      vertex 0.1309 23.7741 14
      vertex 0.0919647 23.7192 0
      vertex 0.0919647 23.7192 14
    endloop
  endfacet
  facet normal -0.66606 0.745898 0
    outer loop
      vertex 0.225905 23.8691 0
      vertex 0.175735 23.8243 14
      vertex 0.225905 23.8691 14
    endloop
  endfacet
  facet normal -0.66606 0.745898 0
    outer loop
      vertex 0.175735 23.8243 14
      vertex 0.225905 23.8691 0
      vertex 0.175735 23.8243 0
    endloop
  endfacet
  facet normal -0.578316 0.815813 0
    outer loop
      vertex 0.28078 23.908 0
      vertex 0.225905 23.8691 14
      vertex 0.28078 23.908 14
    endloop
  endfacet
  facet normal -0.578316 0.815813 0
    outer loop
      vertex 0.225905 23.8691 14
      vertex 0.28078 23.908 0
      vertex 0.225905 23.8691 0
    endloop
  endfacet
  facet normal -0.985857 0.167589 0
    outer loop
      vertex 0.00377178 23.4672 0
      vertex 0.0150423 23.5335 14
      vertex 0.0150423 23.5335 0
    endloop
  endfacet
  facet normal -0.985857 0.167589 0
    outer loop
      vertex 0.0150423 23.5335 14
      vertex 0.00377178 23.4672 0
      vertex 0.00377178 23.4672 14
    endloop
  endfacet
  facet normal -0.960967 0.276663 0
    outer loop
      vertex 0.0150423 23.5335 0
      vertex 0.0336695 23.5982 14
      vertex 0.0336695 23.5982 0
    endloop
  endfacet
  facet normal -0.960967 0.276663 0
    outer loop
      vertex 0.0336695 23.5982 14
      vertex 0.0150423 23.5335 0
      vertex 0.0150423 23.5335 14
    endloop
  endfacet
  facet normal -0.166486 0.986044 0
    outer loop
      vertex 0.532821 23.9962 0
      vertex 0.466487 23.985 14
      vertex 0.532821 23.9962 14
    endloop
  endfacet
  facet normal -0.166486 0.986044 0
    outer loop
      vertex 0.466487 23.985 14
      vertex 0.532821 23.9962 0
      vertex 0.466487 23.985 0
    endloop
  endfacet
  facet normal -0.875228 -0.48371 0
    outer loop
      vertex 0.0919647 0.28078 0
      vertex 0.0594187 0.339669 14
      vertex 0.0594187 0.339669 0
    endloop
  endfacet
  facet normal -0.875228 -0.48371 0
    outer loop
      vertex 0.0594187 0.339669 14
      vertex 0.0919647 0.28078 0
      vertex 0.0919647 0.28078 14
    endloop
  endfacet
  facet normal -0.74564 -0.666349 0
    outer loop
      vertex 0.175735 0.175735 0
      vertex 0.1309 0.225905 14
      vertex 0.1309 0.225905 0
    endloop
  endfacet
  facet normal -0.74564 -0.666349 0
    outer loop
      vertex 0.1309 0.225905 14
      vertex 0.175735 0.175735 0
      vertex 0.175735 0.175735 14
    endloop
  endfacet
  facet normal -0.666349 -0.74564 0
    outer loop
      vertex 0.175735 0.175735 0
      vertex 0.225905 0.1309 14
      vertex 0.175735 0.175735 14
    endloop
  endfacet
  facet normal -0.666349 -0.74564 -0
    outer loop
      vertex 0.225905 0.1309 14
      vertex 0.175735 0.175735 0
      vertex 0.225905 0.1309 0
    endloop
  endfacet
  facet normal -0.484324 0.874889 0
    outer loop
      vertex 0.339669 23.9406 0
      vertex 0.28078 23.908 14
      vertex 0.339669 23.9406 14
    endloop
  endfacet
  facet normal -0.484324 0.874889 0
    outer loop
      vertex 0.28078 23.908 14
      vertex 0.339669 23.9406 0
      vertex 0.28078 23.908 0
    endloop
  endfacet
  facet normal 0.483641 -0.875267 0
    outer loop
      vertex 33.6603 0.0594187 0
      vertex 33.7192 0.0919647 2.4
      vertex 33.6603 0.0594187 2.4
    endloop
  endfacet
  facet normal 0.483641 -0.875267 0
    outer loop
      vertex 33.7192 0.0919647 2.4
      vertex 33.6603 0.0594187 0
      vertex 33.7192 0.0919647 0
    endloop
  endfacet
  facet normal 0.38302 -0.92374 0
    outer loop
      vertex 33.5982 0.0336695 0
      vertex 33.6603 0.0594187 2.4
      vertex 33.5982 0.0336695 2.4
    endloop
  endfacet
  facet normal 0.38302 -0.92374 0
    outer loop
      vertex 33.6603 0.0594187 2.4
      vertex 33.5982 0.0336695 0
      vertex 33.6603 0.0594187 0
    endloop
  endfacet
  facet normal 0.0564574 0.998405 -0
    outer loop
      vertex 33.4672 23.9962 0
      vertex 33.4 24 2.4
      vertex 33.4672 23.9962 2.4
    endloop
  endfacet
  facet normal 0.0564574 0.998405 0
    outer loop
      vertex 33.4 24 2.4
      vertex 33.4672 23.9962 0
      vertex 33.4 24 0
    endloop
  endfacet
  facet normal 0.665839 0.746096 -0
    outer loop
      vertex 33.8243 23.8243 0
      vertex 33.7741 23.8691 2.4
      vertex 33.8243 23.8243 2.4
    endloop
  endfacet
  facet normal 0.665839 0.746096 0
    outer loop
      vertex 33.7741 23.8691 2.4
      vertex 33.8243 23.8243 0
      vertex 33.7741 23.8691 0
    endloop
  endfacet
  facet normal 0.986044 -0.166486 0
    outer loop
      vertex 33.985 0.466487 2.4
      vertex 33.9962 0.532821 0
      vertex 33.9962 0.532821 2.4
    endloop
  endfacet
  facet normal 0.986044 -0.166486 0
    outer loop
      vertex 33.9962 0.532821 0
      vertex 33.985 0.466487 2.4
      vertex 33.985 0.466487 0
    endloop
  endfacet
  facet normal 0.998405 0.0564574 0
    outer loop
      vertex 34 23.4 2.4
      vertex 33.9962 23.4672 0
      vertex 33.9962 23.4672 2.4
    endloop
  endfacet
  facet normal 0.998405 0.0564574 0
    outer loop
      vertex 33.9962 23.4672 0
      vertex 34 23.4 2.4
      vertex 34 23.4 0
    endloop
  endfacet
  facet normal 0.578141 0.815937 -0
    outer loop
      vertex 33.7741 23.8691 0
      vertex 33.7192 23.908 2.4
      vertex 33.7741 23.8691 2.4
    endloop
  endfacet
  facet normal 0.578141 0.815937 0
    outer loop
      vertex 33.7192 23.908 2.4
      vertex 33.7741 23.8691 0
      vertex 33.7192 23.908 0
    endloop
  endfacet
  facet normal 1 -0 0
    outer loop
      vertex 34 22 2.4
      vertex 34 23.4 0
      vertex 34 23.4 2.4
    endloop
  endfacet
  facet normal 1 0 0
    outer loop
      vertex 34 23.4 0
      vertex 34 22 2.4
      vertex 34 22 0
    endloop
  endfacet
  facet normal 1 -0 0
    outer loop
      vertex 34 0.599999 2.4
      vertex 34 1.99998 0
      vertex 34 1.99998 2.4
    endloop
  endfacet
  facet normal 1 0 0
    outer loop
      vertex 34 1.99998 0
      vertex 34 0.599999 2.4
      vertex 34 0.599999 0
    endloop
  endfacet
  facet normal 0.745898 -0.66606 0
    outer loop
      vertex 33.8243 0.175735 2.4
      vertex 33.8691 0.225905 0
      vertex 33.8691 0.225905 2.4
    endloop
  endfacet
  facet normal 0.745898 -0.66606 0
    outer loop
      vertex 33.8691 0.225905 0
      vertex 33.8243 0.175735 2.4
      vertex 33.8243 0.175735 0
    endloop
  endfacet
  facet normal 0.815813 -0.578316 0
    outer loop
      vertex 33.8691 0.225905 2.4
      vertex 33.908 0.28078 0
      vertex 33.908 0.28078 2.4
    endloop
  endfacet
  facet normal 0.815813 -0.578316 0
    outer loop
      vertex 33.908 0.28078 0
      vertex 33.8691 0.225905 2.4
      vertex 33.8691 0.225905 0
    endloop
  endfacet
  facet normal 0.57849 -0.815689 0
    outer loop
      vertex 33.7192 0.0919647 0
      vertex 33.7741 0.1309 2.4
      vertex 33.7192 0.0919647 2.4
    endloop
  endfacet
  facet normal 0.57849 -0.815689 0
    outer loop
      vertex 33.7741 0.1309 2.4
      vertex 33.7192 0.0919647 0
      vertex 33.7741 0.1309 0
    endloop
  endfacet
  facet normal 0.98603 0.166569 0
    outer loop
      vertex 33.9962 23.4672 2.4
      vertex 33.985 23.5335 0
      vertex 33.985 23.5335 2.4
    endloop
  endfacet
  facet normal 0.98603 0.166569 0
    outer loop
      vertex 33.985 23.5335 0
      vertex 33.9962 23.4672 2.4
      vertex 33.9962 23.4672 0
    endloop
  endfacet
  facet normal 0.277661 0.960679 -0
    outer loop
      vertex 33.5982 23.9663 0
      vertex 33.5335 23.985 2.4
      vertex 33.5982 23.9663 2.4
    endloop
  endfacet
  facet normal 0.277661 0.960679 0
    outer loop
      vertex 33.5335 23.985 2.4
      vertex 33.5982 23.9663 0
      vertex 33.5335 23.985 0
    endloop
  endfacet
  facet normal 0.0560395 -0.998429 0
    outer loop
      vertex 33.4 0 0
      vertex 33.4672 0.00377178 2.4
      vertex 33.4 0 2.4
    endloop
  endfacet
  facet normal 0.0560395 -0.998429 0
    outer loop
      vertex 33.4672 0.00377178 2.4
      vertex 33.4 0 0
      vertex 33.4672 0.00377178 0
    endloop
  endfacet
  facet normal 0.166569 0.98603 -0
    outer loop
      vertex 33.5335 23.985 0
      vertex 33.4672 23.9962 2.4
      vertex 33.5335 23.985 2.4
    endloop
  endfacet
  facet normal 0.166569 0.98603 0
    outer loop
      vertex 33.4672 23.9962 2.4
      vertex 33.5335 23.985 0
      vertex 33.4672 23.9962 0
    endloop
  endfacet
  facet normal 0.666128 -0.745837 0
    outer loop
      vertex 33.7741 0.1309 0
      vertex 33.8243 0.175735 2.4
      vertex 33.7741 0.1309 2.4
    endloop
  endfacet
  facet normal 0.666128 -0.745837 0
    outer loop
      vertex 33.8243 0.175735 2.4
      vertex 33.7741 0.1309 0
      vertex 33.8243 0.175735 0
    endloop
  endfacet
  facet normal 0.874927 0.484255 0
    outer loop
      vertex 33.9406 23.6603 2.4
      vertex 33.908 23.7192 0
      vertex 33.908 23.7192 2.4
    endloop
  endfacet
  facet normal 0.874927 0.484255 0
    outer loop
      vertex 33.908 23.7192 0
      vertex 33.9406 23.6603 2.4
      vertex 33.9406 23.6603 0
    endloop
  endfacet
  facet normal 0.484255 0.874927 -0
    outer loop
      vertex 33.7192 23.908 0
      vertex 33.6603 23.9406 2.4
      vertex 33.7192 23.908 2.4
    endloop
  endfacet
  facet normal 0.484255 0.874927 0
    outer loop
      vertex 33.6603 23.9406 2.4
      vertex 33.7192 23.908 0
      vertex 33.6603 23.9406 0
    endloop
  endfacet
  facet normal 0.874889 -0.484324 0
    outer loop
      vertex 33.908 0.28078 2.4
      vertex 33.9406 0.339669 0
      vertex 33.9406 0.339669 2.4
    endloop
  endfacet
  facet normal 0.874889 -0.484324 0
    outer loop
      vertex 33.9406 0.339669 0
      vertex 33.908 0.28078 2.4
      vertex 33.908 0.28078 0
    endloop
  endfacet
  facet normal 0.998404 -0.0564759 0
    outer loop
      vertex 33.9962 0.532821 2.4
      vertex 34 0.599999 0
      vertex 34 0.599999 2.4
    endloop
  endfacet
  facet normal 0.998404 -0.0564759 0
    outer loop
      vertex 34 0.599999 0
      vertex 33.9962 0.532821 2.4
      vertex 33.9962 0.532821 0
    endloop
  endfacet
  facet normal 0.276663 -0.960967 0
    outer loop
      vertex 33.5335 0.0150423 0
      vertex 33.5982 0.0336695 2.4
      vertex 33.5335 0.0150423 2.4
    endloop
  endfacet
  facet normal 0.276663 -0.960967 0
    outer loop
      vertex 33.5982 0.0336695 2.4
      vertex 33.5335 0.0150423 0
      vertex 33.5982 0.0336695 0
    endloop
  endfacet
  facet normal 0.167589 -0.985857 0
    outer loop
      vertex 33.4672 0.00377178 0
      vertex 33.5335 0.0150423 2.4
      vertex 33.4672 0.00377178 2.4
    endloop
  endfacet
  facet normal 0.167589 -0.985857 0
    outer loop
      vertex 33.5335 0.0150423 2.4
      vertex 33.4672 0.00377178 0
      vertex 33.5335 0.0150423 0
    endloop
  endfacet
  facet normal 0.382396 0.923999 -0
    outer loop
      vertex 33.6603 23.9406 0
      vertex 33.5982 23.9663 2.4
      vertex 33.6603 23.9406 2.4
    endloop
  endfacet
  facet normal 0.382396 0.923999 0
    outer loop
      vertex 33.5982 23.9663 2.4
      vertex 33.6603 23.9406 0
      vertex 33.5982 23.9663 0
    endloop
  endfacet
  facet normal 0.924136 -0.382065 0
    outer loop
      vertex 33.9406 0.339669 2.4
      vertex 33.9663 0.401832 0
      vertex 33.9663 0.401832 2.4
    endloop
  endfacet
  facet normal 0.924136 -0.382065 0
    outer loop
      vertex 33.9663 0.401832 0
      vertex 33.9406 0.339669 2.4
      vertex 33.9406 0.339669 0
    endloop
  endfacet
  facet normal 0.923999 0.382396 0
    outer loop
      vertex 33.9663 23.5982 2.4
      vertex 33.9406 23.6603 0
      vertex 33.9406 23.6603 2.4
    endloop
  endfacet
  facet normal 0.923999 0.382396 0
    outer loop
      vertex 33.9406 23.6603 0
      vertex 33.9663 23.5982 2.4
      vertex 33.9663 23.5982 0
    endloop
  endfacet
  facet normal 0.815937 0.578141 0
    outer loop
      vertex 33.908 23.7192 2.4
      vertex 33.8691 23.7741 0
      vertex 33.8691 23.7741 2.4
    endloop
  endfacet
  facet normal 0.815937 0.578141 0
    outer loop
      vertex 33.8691 23.7741 0
      vertex 33.908 23.7192 2.4
      vertex 33.908 23.7192 0
    endloop
  endfacet
  facet normal 0.960627 -0.27784 0
    outer loop
      vertex 33.9663 0.401832 2.4
      vertex 33.985 0.466487 0
      vertex 33.985 0.466487 2.4
    endloop
  endfacet
  facet normal 0.960627 -0.27784 0
    outer loop
      vertex 33.985 0.466487 0
      vertex 33.9663 0.401832 2.4
      vertex 33.9663 0.401832 0
    endloop
  endfacet
  facet normal 0.960679 0.277661 0
    outer loop
      vertex 33.985 23.5335 2.4
      vertex 33.9663 23.5982 0
      vertex 33.9663 23.5982 2.4
    endloop
  endfacet
  facet normal 0.960679 0.277661 0
    outer loop
      vertex 33.9663 23.5982 0
      vertex 33.985 23.5335 2.4
      vertex 33.985 23.5335 0
    endloop
  endfacet
  facet normal 0.746096 0.665839 0
    outer loop
      vertex 33.8691 23.7741 2.4
      vertex 33.8243 23.8243 0
      vertex 33.8243 23.8243 2.4
    endloop
  endfacet
  facet normal 0.746096 0.665839 0
    outer loop
      vertex 33.8243 23.8243 0
      vertex 33.8691 23.7741 2.4
      vertex 33.8691 23.7741 0
    endloop
  endfacet
  facet normal 1 -0 0
    outer loop
      vertex 2 0 14
      vertex 2 24 2.4
      vertex 2 24 14
    endloop
  endfacet
  facet normal 1 0 0
    outer loop
      vertex 2 24 2.4
      vertex 2 0 14
      vertex 2 0 2.4
    endloop
  endfacet
  facet normal 0.98592 0.167218 0
    outer loop
      vertex 18.9874 23.6239 9.4
      vertex 18.9499 23.845 2.4
      vertex 18.9499 23.845 9.4
    endloop
  endfacet
  facet normal 0.98592 0.167218 0
    outer loop
      vertex 18.9499 23.845 2.4
      vertex 18.9874 23.6239 9.4
      vertex 18.9874 23.6239 2.4
    endloop
  endfacet
  facet normal -0.99842 -0.0561862 0
    outer loop
      vertex 15.0126 23.1761 2.4
      vertex 15 23.4 9.4
      vertex 15 23.4 2.4
    endloop
  endfacet
  facet normal -0.99842 -0.0561862 0
    outer loop
      vertex 15 23.4 9.4
      vertex 15.0126 23.1761 2.4
      vertex 15.0126 23.1761 9.4
    endloop
  endfacet
  facet normal -0.875207 0.483749 0
    outer loop
      vertex 15.1981 24.2678 0
      vertex 15.3066 24.4641 9.4
      vertex 15.3066 24.4641 0
    endloop
  endfacet
  facet normal -0.875207 0.483749 0
    outer loop
      vertex 15.3066 24.4641 9.4
      vertex 15.1981 24.2678 0
      vertex 15.1981 24.2678 9.4
    endloop
  endfacet
  facet normal 0.815718 -0.57845 0
    outer loop
      vertex 18.5637 22.153 9.4
      vertex 18.6934 22.3359 2.4
      vertex 18.6934 22.3359 9.4
    endloop
  endfacet
  facet normal 0.815718 -0.57845 0
    outer loop
      vertex 18.6934 22.3359 2.4
      vertex 18.5637 22.153 9.4
      vertex 18.5637 22.153 2.4
    endloop
  endfacet
  facet normal -0.382969 0.923761 0
    outer loop
      vertex 16.3394 25.2878 0
      vertex 16.1322 25.2019 9.4
      vertex 16.3394 25.2878 9.4
    endloop
  endfacet
  facet normal -0.382969 0.923761 0
    outer loop
      vertex 16.1322 25.2019 9.4
      vertex 16.3394 25.2878 0
      vertex 16.1322 25.2019 0
    endloop
  endfacet
  facet normal -0.923761 -0.382969 0
    outer loop
      vertex 15.1981 22.5322 2.4
      vertex 15.1122 22.7394 9.4
      vertex 15.1122 22.7394 2.4
    endloop
  endfacet
  facet normal -0.923761 -0.382969 0
    outer loop
      vertex 15.1122 22.7394 9.4
      vertex 15.1981 22.5322 2.4
      vertex 15.1981 22.5322 9.4
    endloop
  endfacet
  facet normal 0.57845 -0.815718 0
    outer loop
      vertex 18.0641 21.7066 2.4
      vertex 18.247 21.8363 9.4
      vertex 18.0641 21.7066 9.4
    endloop
  endfacet
  facet normal 0.57845 -0.815718 0
    outer loop
      vertex 18.247 21.8363 9.4
      vertex 18.0641 21.7066 2.4
      vertex 18.247 21.8363 2.4
    endloop
  endfacet
  facet normal 0.923761 -0.382969 0
    outer loop
      vertex 18.8019 22.5322 9.4
      vertex 18.8878 22.7394 2.4
      vertex 18.8878 22.7394 9.4
    endloop
  endfacet
  facet normal 0.923761 -0.382969 0
    outer loop
      vertex 18.8878 22.7394 2.4
      vertex 18.8019 22.5322 9.4
      vertex 18.8019 22.5322 2.4
    endloop
  endfacet
  facet normal 0.99842 0.0561862 0
    outer loop
      vertex 19 23.4 9.4
      vertex 18.9874 23.6239 2.4
      vertex 18.9874 23.6239 9.4
    endloop
  endfacet
  facet normal 0.99842 0.0561862 0
    outer loop
      vertex 18.9874 23.6239 2.4
      vertex 19 23.4 9.4
      vertex 19 23.4 2.4
    endloop
  endfacet
  facet normal 0.99842 -0.0561862 0
    outer loop
      vertex 18.9874 23.1761 9.4
      vertex 19 23.4 2.4
      vertex 19 23.4 9.4
    endloop
  endfacet
  facet normal 0.99842 -0.0561862 0
    outer loop
      vertex 19 23.4 2.4
      vertex 18.9874 23.1761 9.4
      vertex 18.9874 23.1761 2.4
    endloop
  endfacet
  facet normal -0.167218 0.98592 0
    outer loop
      vertex 16.7761 25.3874 0
      vertex 16.555 25.3499 9.4
      vertex 16.7761 25.3874 9.4
    endloop
  endfacet
  facet normal -0.167218 0.98592 0
    outer loop
      vertex 16.555 25.3499 9.4
      vertex 16.7761 25.3874 0
      vertex 16.555 25.3499 0
    endloop
  endfacet
  facet normal 0.57845 0.815718 -0
    outer loop
      vertex 18.247 24.9637 0
      vertex 18.0641 25.0934 9.4
      vertex 18.247 24.9637 9.4
    endloop
  endfacet
  facet normal 0.57845 0.815718 0
    outer loop
      vertex 18.0641 25.0934 9.4
      vertex 18.247 24.9637 0
      vertex 18.0641 25.0934 0
    endloop
  endfacet
  facet normal -0.98592 -0.167218 0
    outer loop
      vertex 15.0501 22.955 2.4
      vertex 15.0126 23.1761 9.4
      vertex 15.0126 23.1761 2.4
    endloop
  endfacet
  facet normal -0.98592 -0.167218 0
    outer loop
      vertex 15.0126 23.1761 9.4
      vertex 15.0501 22.955 2.4
      vertex 15.0501 22.955 9.4
    endloop
  endfacet
  facet normal -0.57845 -0.815718 0
    outer loop
      vertex 15.753 21.8363 2.4
      vertex 15.9359 21.7066 9.4
      vertex 15.753 21.8363 9.4
    endloop
  endfacet
  facet normal -0.57845 -0.815718 -0
    outer loop
      vertex 15.9359 21.7066 9.4
      vertex 15.753 21.8363 2.4
      vertex 15.9359 21.7066 2.4
    endloop
  endfacet
  facet normal -0.98592 0.167218 0
    outer loop
      vertex 15.0126 23.6239 2.4
      vertex 15.0501 23.845 9.4
      vertex 15.0501 23.845 2.4
    endloop
  endfacet
  facet normal -0.98592 0.167218 0
    outer loop
      vertex 15.0501 23.845 9.4
      vertex 15.0126 23.6239 2.4
      vertex 15.0126 23.6239 9.4
    endloop
  endfacet
  facet normal -0.745463 0.666547 0
    outer loop
      vertex 15.4363 24.647 0
      vertex 15.5858 24.8142 9.4
      vertex 15.5858 24.8142 0
    endloop
  endfacet
  facet normal -0.745463 0.666547 0
    outer loop
      vertex 15.5858 24.8142 9.4
      vertex 15.4363 24.647 0
      vertex 15.4363 24.647 9.4
    endloop
  endfacet
  facet normal 0.961164 0.275978 0
    outer loop
      vertex 18.8878 24.0606 9.4
      vertex 18.9052 24 2.4
      vertex 18.8878 24.0606 0
    endloop
  endfacet
  facet normal 0.960933 0.276781 -7.52599e-06
    outer loop
      vertex 18.9499 23.845 9.4
      vertex 18.9052 24 2.4
      vertex 18.8878 24.0606 9.4
    endloop
  endfacet
  facet normal 0.960843 0.277095 0
    outer loop
      vertex 18.9052 24 2.4
      vertex 18.9499 23.845 9.4
      vertex 18.9499 23.845 2.4
    endloop
  endfacet
  facet normal 0.961164 0.275978 0
    outer loop
      vertex 18.8878 24.0606 0
      vertex 18.9052 24 2.4
      vertex 18.9052 24 0
    endloop
  endfacet
  facet normal 0.960933 -0.276781 0
    outer loop
      vertex 18.8878 22.7394 9.4
      vertex 18.9499 22.955 2.4
      vertex 18.9499 22.955 9.4
    endloop
  endfacet
  facet normal 0.960933 -0.276781 0
    outer loop
      vertex 18.9499 22.955 2.4
      vertex 18.8878 22.7394 9.4
      vertex 18.8878 22.7394 2.4
    endloop
  endfacet
  facet normal 0.875207 0.483749 0
    outer loop
      vertex 18.8019 24.2678 9.4
      vertex 18.6934 24.4641 0
      vertex 18.6934 24.4641 9.4
    endloop
  endfacet
  facet normal 0.875207 0.483749 0
    outer loop
      vertex 18.6934 24.4641 0
      vertex 18.8019 24.2678 9.4
      vertex 18.8019 24.2678 0
    endloop
  endfacet
  facet normal 0.815718 0.57845 0
    outer loop
      vertex 18.6934 24.4641 9.4
      vertex 18.5637 24.647 0
      vertex 18.5637 24.647 9.4
    endloop
  endfacet
  facet normal 0.815718 0.57845 0
    outer loop
      vertex 18.5637 24.647 0
      vertex 18.6934 24.4641 9.4
      vertex 18.6934 24.4641 0
    endloop
  endfacet
  facet normal 0.923761 0.382969 0
    outer loop
      vertex 18.8878 24.0606 9.4
      vertex 18.8019 24.2678 0
      vertex 18.8019 24.2678 9.4
    endloop
  endfacet
  facet normal 0.923761 0.382969 0
    outer loop
      vertex 18.8019 24.2678 0
      vertex 18.8878 24.0606 9.4
      vertex 18.8878 24.0606 0
    endloop
  endfacet
  facet normal -0.167218 -0.98592 0
    outer loop
      vertex 16.555 21.4501 2.4
      vertex 16.7761 21.4126 9.4
      vertex 16.555 21.4501 9.4
    endloop
  endfacet
  facet normal -0.167218 -0.98592 -0
    outer loop
      vertex 16.7761 21.4126 9.4
      vertex 16.555 21.4501 2.4
      vertex 16.7761 21.4126 2.4
    endloop
  endfacet
  facet normal 0.382969 -0.923761 0
    outer loop
      vertex 17.6606 21.5122 2.4
      vertex 17.8678 21.5981 9.4
      vertex 17.6606 21.5122 9.4
    endloop
  endfacet
  facet normal 0.382969 -0.923761 0
    outer loop
      vertex 17.8678 21.5981 9.4
      vertex 17.6606 21.5122 2.4
      vertex 17.8678 21.5981 2.4
    endloop
  endfacet
  facet normal 0.382969 0.923761 -0
    outer loop
      vertex 17.8678 25.2019 0
      vertex 17.6606 25.2878 9.4
      vertex 17.8678 25.2019 9.4
    endloop
  endfacet
  facet normal 0.382969 0.923761 0
    outer loop
      vertex 17.6606 25.2878 9.4
      vertex 17.8678 25.2019 0
      vertex 17.6606 25.2878 0
    endloop
  endfacet
  facet normal -0.0561862 0.99842 0
    outer loop
      vertex 17 25.4 0
      vertex 16.7761 25.3874 9.4
      vertex 17 25.4 9.4
    endloop
  endfacet
  facet normal -0.0561862 0.99842 0
    outer loop
      vertex 16.7761 25.3874 9.4
      vertex 17 25.4 0
      vertex 16.7761 25.3874 0
    endloop
  endfacet
  facet normal 0.875207 -0.483749 0
    outer loop
      vertex 18.6934 22.3359 9.4
      vertex 18.8019 22.5322 2.4
      vertex 18.8019 22.5322 9.4
    endloop
  endfacet
  facet normal 0.875207 -0.483749 0
    outer loop
      vertex 18.8019 22.5322 2.4
      vertex 18.6934 22.3359 9.4
      vertex 18.6934 22.3359 2.4
    endloop
  endfacet
  facet normal 0.0561862 0.99842 -0
    outer loop
      vertex 17.2239 25.3874 0
      vertex 17 25.4 9.4
      vertex 17.2239 25.3874 9.4
    endloop
  endfacet
  facet normal 0.0561862 0.99842 0
    outer loop
      vertex 17 25.4 9.4
      vertex 17.2239 25.3874 0
      vertex 17 25.4 0
    endloop
  endfacet
  facet normal 0.666547 0.745463 -0
    outer loop
      vertex 18.4142 24.8142 0
      vertex 18.247 24.9637 9.4
      vertex 18.4142 24.8142 9.4
    endloop
  endfacet
  facet normal 0.666547 0.745463 0
    outer loop
      vertex 18.247 24.9637 9.4
      vertex 18.4142 24.8142 0
      vertex 18.247 24.9637 0
    endloop
  endfacet
  facet normal 0.167218 -0.98592 0
    outer loop
      vertex 17.2239 21.4126 2.4
      vertex 17.445 21.4501 9.4
      vertex 17.2239 21.4126 9.4
    endloop
  endfacet
  facet normal 0.167218 -0.98592 0
    outer loop
      vertex 17.445 21.4501 9.4
      vertex 17.2239 21.4126 2.4
      vertex 17.445 21.4501 2.4
    endloop
  endfacet
  facet normal 0.745463 0.666547 0
    outer loop
      vertex 18.5637 24.647 9.4
      vertex 18.4142 24.8142 0
      vertex 18.4142 24.8142 9.4
    endloop
  endfacet
  facet normal 0.745463 0.666547 0
    outer loop
      vertex 18.4142 24.8142 0
      vertex 18.5637 24.647 9.4
      vertex 18.5637 24.647 0
    endloop
  endfacet
  facet normal -0.815718 -0.57845 0
    outer loop
      vertex 15.4363 22.153 2.4
      vertex 15.3066 22.3359 9.4
      vertex 15.3066 22.3359 2.4
    endloop
  endfacet
  facet normal -0.815718 -0.57845 0
    outer loop
      vertex 15.3066 22.3359 9.4
      vertex 15.4363 22.153 2.4
      vertex 15.4363 22.153 9.4
    endloop
  endfacet
  facet normal -0.745463 -0.666547 0
    outer loop
      vertex 15.5858 21.9858 2.4
      vertex 15.4363 22.153 9.4
      vertex 15.4363 22.153 2.4
    endloop
  endfacet
  facet normal -0.745463 -0.666547 0
    outer loop
      vertex 15.4363 22.153 9.4
      vertex 15.5858 21.9858 2.4
      vertex 15.5858 21.9858 9.4
    endloop
  endfacet
  facet normal 0.276781 -0.960933 0
    outer loop
      vertex 17.445 21.4501 2.4
      vertex 17.6606 21.5122 9.4
      vertex 17.445 21.4501 9.4
    endloop
  endfacet
  facet normal 0.276781 -0.960933 0
    outer loop
      vertex 17.6606 21.5122 9.4
      vertex 17.445 21.4501 2.4
      vertex 17.6606 21.5122 2.4
    endloop
  endfacet
  facet normal -0.666547 -0.745463 0
    outer loop
      vertex 15.5858 21.9858 2.4
      vertex 15.753 21.8363 9.4
      vertex 15.5858 21.9858 9.4
    endloop
  endfacet
  facet normal -0.666547 -0.745463 -0
    outer loop
      vertex 15.753 21.8363 9.4
      vertex 15.5858 21.9858 2.4
      vertex 15.753 21.8363 2.4
    endloop
  endfacet
  facet normal -0.666547 0.745463 0
    outer loop
      vertex 15.753 24.9637 0
      vertex 15.5858 24.8142 9.4
      vertex 15.753 24.9637 9.4
    endloop
  endfacet
  facet normal -0.666547 0.745463 0
    outer loop
      vertex 15.5858 24.8142 9.4
      vertex 15.753 24.9637 0
      vertex 15.5858 24.8142 0
    endloop
  endfacet
  facet normal 0.98592 -0.167218 0
    outer loop
      vertex 18.9499 22.955 9.4
      vertex 18.9874 23.1761 2.4
      vertex 18.9874 23.1761 9.4
    endloop
  endfacet
  facet normal 0.98592 -0.167218 0
    outer loop
      vertex 18.9874 23.1761 2.4
      vertex 18.9499 22.955 9.4
      vertex 18.9499 22.955 2.4
    endloop
  endfacet
  facet normal 0.276781 0.960933 -0
    outer loop
      vertex 17.6606 25.2878 0
      vertex 17.445 25.3499 9.4
      vertex 17.6606 25.2878 9.4
    endloop
  endfacet
  facet normal 0.276781 0.960933 0
    outer loop
      vertex 17.445 25.3499 9.4
      vertex 17.6606 25.2878 0
      vertex 17.445 25.3499 0
    endloop
  endfacet
  facet normal 0.0561862 -0.99842 0
    outer loop
      vertex 17 21.4 2.4
      vertex 17.2239 21.4126 9.4
      vertex 17 21.4 9.4
    endloop
  endfacet
  facet normal 0.0561862 -0.99842 0
    outer loop
      vertex 17.2239 21.4126 9.4
      vertex 17 21.4 2.4
      vertex 17.2239 21.4126 2.4
    endloop
  endfacet
  facet normal 0.483749 -0.875207 0
    outer loop
      vertex 17.8678 21.5981 2.4
      vertex 18.0641 21.7066 9.4
      vertex 17.8678 21.5981 9.4
    endloop
  endfacet
  facet normal 0.483749 -0.875207 0
    outer loop
      vertex 18.0641 21.7066 9.4
      vertex 17.8678 21.5981 2.4
      vertex 18.0641 21.7066 2.4
    endloop
  endfacet
  facet normal 0.483749 0.875207 -0
    outer loop
      vertex 18.0641 25.0934 0
      vertex 17.8678 25.2019 9.4
      vertex 18.0641 25.0934 9.4
    endloop
  endfacet
  facet normal 0.483749 0.875207 0
    outer loop
      vertex 17.8678 25.2019 9.4
      vertex 18.0641 25.0934 0
      vertex 17.8678 25.2019 0
    endloop
  endfacet
  facet normal -0.923761 0.382969 0
    outer loop
      vertex 15.1122 24.0606 0
      vertex 15.1981 24.2678 9.4
      vertex 15.1981 24.2678 0
    endloop
  endfacet
  facet normal -0.923761 0.382969 0
    outer loop
      vertex 15.1981 24.2678 9.4
      vertex 15.1122 24.0606 0
      vertex 15.1122 24.0606 9.4
    endloop
  endfacet
  facet normal -0.875207 -0.483749 0
    outer loop
      vertex 15.3066 22.3359 2.4
      vertex 15.1981 22.5322 9.4
      vertex 15.1981 22.5322 2.4
    endloop
  endfacet
  facet normal -0.875207 -0.483749 0
    outer loop
      vertex 15.1981 22.5322 9.4
      vertex 15.3066 22.3359 2.4
      vertex 15.3066 22.3359 9.4
    endloop
  endfacet
  facet normal -0.0561862 -0.99842 0
    outer loop
      vertex 16.7761 21.4126 2.4
      vertex 17 21.4 9.4
      vertex 16.7761 21.4126 9.4
    endloop
  endfacet
  facet normal -0.0561862 -0.99842 -0
    outer loop
      vertex 17 21.4 9.4
      vertex 16.7761 21.4126 2.4
      vertex 17 21.4 2.4
    endloop
  endfacet
  facet normal -0.276781 0.960933 0
    outer loop
      vertex 16.555 25.3499 0
      vertex 16.3394 25.2878 9.4
      vertex 16.555 25.3499 9.4
    endloop
  endfacet
  facet normal -0.276781 0.960933 0
    outer loop
      vertex 16.3394 25.2878 9.4
      vertex 16.555 25.3499 0
      vertex 16.3394 25.2878 0
    endloop
  endfacet
  facet normal -0.99842 0.0561862 0
    outer loop
      vertex 15 23.4 2.4
      vertex 15.0126 23.6239 9.4
      vertex 15.0126 23.6239 2.4
    endloop
  endfacet
  facet normal -0.99842 0.0561862 0
    outer loop
      vertex 15.0126 23.6239 9.4
      vertex 15 23.4 2.4
      vertex 15 23.4 9.4
    endloop
  endfacet
  facet normal -0.960933 -0.276781 0
    outer loop
      vertex 15.1122 22.7394 2.4
      vertex 15.0501 22.955 9.4
      vertex 15.0501 22.955 2.4
    endloop
  endfacet
  facet normal -0.960933 -0.276781 0
    outer loop
      vertex 15.0501 22.955 9.4
      vertex 15.1122 22.7394 2.4
      vertex 15.1122 22.7394 9.4
    endloop
  endfacet
  facet normal -0.276781 -0.960933 0
    outer loop
      vertex 16.3394 21.5122 2.4
      vertex 16.555 21.4501 9.4
      vertex 16.3394 21.5122 9.4
    endloop
  endfacet
  facet normal -0.276781 -0.960933 -0
    outer loop
      vertex 16.555 21.4501 9.4
      vertex 16.3394 21.5122 2.4
      vertex 16.555 21.4501 2.4
    endloop
  endfacet
  facet normal 0.167218 0.98592 -0
    outer loop
      vertex 17.445 25.3499 0
      vertex 17.2239 25.3874 9.4
      vertex 17.445 25.3499 9.4
    endloop
  endfacet
  facet normal 0.167218 0.98592 0
    outer loop
      vertex 17.2239 25.3874 9.4
      vertex 17.445 25.3499 0
      vertex 17.2239 25.3874 0
    endloop
  endfacet
  facet normal -0.57845 0.815718 0
    outer loop
      vertex 15.9359 25.0934 0
      vertex 15.753 24.9637 9.4
      vertex 15.9359 25.0934 9.4
    endloop
  endfacet
  facet normal -0.57845 0.815718 0
    outer loop
      vertex 15.753 24.9637 9.4
      vertex 15.9359 25.0934 0
      vertex 15.753 24.9637 0
    endloop
  endfacet
  facet normal -0.483749 -0.875207 0
    outer loop
      vertex 15.9359 21.7066 2.4
      vertex 16.1322 21.5981 9.4
      vertex 15.9359 21.7066 9.4
    endloop
  endfacet
  facet normal -0.483749 -0.875207 -0
    outer loop
      vertex 16.1322 21.5981 9.4
      vertex 15.9359 21.7066 2.4
      vertex 16.1322 21.5981 2.4
    endloop
  endfacet
  facet normal -0.382969 -0.923761 0
    outer loop
      vertex 16.1322 21.5981 2.4
      vertex 16.3394 21.5122 9.4
      vertex 16.1322 21.5981 9.4
    endloop
  endfacet
  facet normal -0.382969 -0.923761 -0
    outer loop
      vertex 16.3394 21.5122 9.4
      vertex 16.1322 21.5981 2.4
      vertex 16.3394 21.5122 2.4
    endloop
  endfacet
  facet normal -0.483749 0.875207 0
    outer loop
      vertex 16.1322 25.2019 0
      vertex 15.9359 25.0934 9.4
      vertex 16.1322 25.2019 9.4
    endloop
  endfacet
  facet normal -0.483749 0.875207 0
    outer loop
      vertex 15.9359 25.0934 9.4
      vertex 16.1322 25.2019 0
      vertex 15.9359 25.0934 0
    endloop
  endfacet
  facet normal -0.961164 0.275978 0
    outer loop
      vertex 15.0948 24 2.4
      vertex 15.1122 24.0606 0
      vertex 15.0948 24 0
    endloop
  endfacet
  facet normal -0.961164 0.275978 0
    outer loop
      vertex 15.1122 24.0606 0
      vertex 15.0948 24 2.4
      vertex 15.1122 24.0606 9.4
    endloop
  endfacet
  facet normal -0.960843 0.277095 -1.04674e-05
    outer loop
      vertex 15.0501 23.845 2.4
      vertex 15.1122 24.0606 9.4
      vertex 15.0948 24 2.4
    endloop
  endfacet
  facet normal -0.960933 0.276781 0
    outer loop
      vertex 15.1122 24.0606 9.4
      vertex 15.0501 23.845 2.4
      vertex 15.0501 23.845 9.4
    endloop
  endfacet
  facet normal 0.666547 -0.745463 0
    outer loop
      vertex 18.247 21.8363 2.4
      vertex 18.4142 21.9858 9.4
      vertex 18.247 21.8363 9.4
    endloop
  endfacet
  facet normal 0.666547 -0.745463 0
    outer loop
      vertex 18.4142 21.9858 9.4
      vertex 18.247 21.8363 2.4
      vertex 18.4142 21.9858 2.4
    endloop
  endfacet
  facet normal 0.745463 -0.666547 0
    outer loop
      vertex 18.4142 21.9858 9.4
      vertex 18.5637 22.153 2.4
      vertex 18.5637 22.153 9.4
    endloop
  endfacet
  facet normal 0.745463 -0.666547 0
    outer loop
      vertex 18.5637 22.153 2.4
      vertex 18.4142 21.9858 9.4
      vertex 18.4142 21.9858 2.4
    endloop
  endfacet
  facet normal -0.815718 0.57845 0
    outer loop
      vertex 15.3066 24.4641 0
      vertex 15.4363 24.647 9.4
      vertex 15.4363 24.647 0
    endloop
  endfacet
  facet normal -0.815718 0.57845 0
    outer loop
      vertex 15.4363 24.647 9.4
      vertex 15.3066 24.4641 0
      vertex 15.3066 24.4641 9.4
    endloop
  endfacet
  facet normal 0 0 1
    outer loop
      vertex 18.9874 23.6239 9.4
      vertex 18.9874 23.1761 9.4
      vertex 19 23.4 9.4
    endloop
  endfacet
  facet normal 0 0 1
    outer loop
      vertex 18.9499 23.845 9.4
      vertex 18.9874 23.1761 9.4
      vertex 18.9874 23.6239 9.4
    endloop
  endfacet
  facet normal 0 0 1
    outer loop
      vertex 18.9499 23.845 9.4
      vertex 18.9499 22.955 9.4
      vertex 18.9874 23.1761 9.4
    endloop
  endfacet
  facet normal 0 0 1
    outer loop
      vertex 18.8878 24.0606 9.4
      vertex 18.9499 22.955 9.4
      vertex 18.9499 23.845 9.4
    endloop
  endfacet
  facet normal 0 0 1
    outer loop
      vertex 18.8878 24.0606 9.4
      vertex 18.8878 22.7394 9.4
      vertex 18.9499 22.955 9.4
    endloop
  endfacet
  facet normal 0 0 1
    outer loop
      vertex 18.8019 24.2678 9.4
      vertex 18.8878 22.7394 9.4
      vertex 18.8878 24.0606 9.4
    endloop
  endfacet
  facet normal 0 0 1
    outer loop
      vertex 18.8019 24.2678 9.4
      vertex 18.8019 22.5322 9.4
      vertex 18.8878 22.7394 9.4
    endloop
  endfacet
  facet normal 0 0 1
    outer loop
      vertex 18.6934 24.4641 9.4
      vertex 18.8019 22.5322 9.4
      vertex 18.8019 24.2678 9.4
    endloop
  endfacet
  facet normal 0 0 1
    outer loop
      vertex 18.6934 24.4641 9.4
      vertex 18.6934 22.3359 9.4
      vertex 18.8019 22.5322 9.4
    endloop
  endfacet
  facet normal 0 0 1
    outer loop
      vertex 18.5637 24.647 9.4
      vertex 18.6934 22.3359 9.4
      vertex 18.6934 24.4641 9.4
    endloop
  endfacet
  facet normal 0 0 1
    outer loop
      vertex 18.5637 24.647 9.4
      vertex 18.5637 22.153 9.4
      vertex 18.6934 22.3359 9.4
    endloop
  endfacet
  facet normal 0 0 1
    outer loop
      vertex 18.4142 24.8142 9.4
      vertex 18.5637 22.153 9.4
      vertex 18.5637 24.647 9.4
    endloop
  endfacet
  facet normal 0 0 1
    outer loop
      vertex 18.4142 24.8142 9.4
      vertex 18.4142 21.9858 9.4
      vertex 18.5637 22.153 9.4
    endloop
  endfacet
  facet normal 0 0 1
    outer loop
      vertex 18.247 24.9637 9.4
      vertex 18.4142 21.9858 9.4
      vertex 18.4142 24.8142 9.4
    endloop
  endfacet
  facet normal 0 0 1
    outer loop
      vertex 18.247 24.9637 9.4
      vertex 18.247 21.8363 9.4
      vertex 18.4142 21.9858 9.4
    endloop
  endfacet
  facet normal 0 0 1
    outer loop
      vertex 18.0641 25.0934 9.4
      vertex 18.247 21.8363 9.4
      vertex 18.247 24.9637 9.4
    endloop
  endfacet
  facet normal 0 0 1
    outer loop
      vertex 18.0641 25.0934 9.4
      vertex 18.0641 21.7066 9.4
      vertex 18.247 21.8363 9.4
    endloop
  endfacet
  facet normal 0 0 1
    outer loop
      vertex 17.8678 25.2019 9.4
      vertex 18.0641 21.7066 9.4
      vertex 18.0641 25.0934 9.4
    endloop
  endfacet
  facet normal 0 0 1
    outer loop
      vertex 17.8678 25.2019 9.4
      vertex 17.8678 21.5981 9.4
      vertex 18.0641 21.7066 9.4
    endloop
  endfacet
  facet normal 0 0 1
    outer loop
      vertex 17.6606 25.2878 9.4
      vertex 17.8678 21.5981 9.4
      vertex 17.8678 25.2019 9.4
    endloop
  endfacet
  facet normal 0 0 1
    outer loop
      vertex 17.6606 25.2878 9.4
      vertex 17.6606 21.5122 9.4
      vertex 17.8678 21.5981 9.4
    endloop
  endfacet
  facet normal 0 0 1
    outer loop
      vertex 17.445 25.3499 9.4
      vertex 17.6606 21.5122 9.4
      vertex 17.6606 25.2878 9.4
    endloop
  endfacet
  facet normal 0 0 1
    outer loop
      vertex 17.445 25.3499 9.4
      vertex 17.445 21.4501 9.4
      vertex 17.6606 21.5122 9.4
    endloop
  endfacet
  facet normal 0 0 1
    outer loop
      vertex 17.2239 25.3874 9.4
      vertex 17.445 21.4501 9.4
      vertex 17.445 25.3499 9.4
    endloop
  endfacet
  facet normal 0 0 1
    outer loop
      vertex 17.2239 25.3874 9.4
      vertex 17.2239 21.4126 9.4
      vertex 17.445 21.4501 9.4
    endloop
  endfacet
  facet normal 0 0 1
    outer loop
      vertex 17 25.4 9.4
      vertex 17.2239 21.4126 9.4
      vertex 17.2239 25.3874 9.4
    endloop
  endfacet
  facet normal 0 0 1
    outer loop
      vertex 17 25.4 9.4
      vertex 17 21.4 9.4
      vertex 17.2239 21.4126 9.4
    endloop
  endfacet
  facet normal -0 0 1
    outer loop
      vertex 16.7761 25.3874 9.4
      vertex 17 21.4 9.4
      vertex 17 25.4 9.4
    endloop
  endfacet
  facet normal 0 0 1
    outer loop
      vertex 16.7761 25.3874 9.4
      vertex 16.7761 21.4126 9.4
      vertex 17 21.4 9.4
    endloop
  endfacet
  facet normal -0 0 1
    outer loop
      vertex 16.555 25.3499 9.4
      vertex 16.7761 21.4126 9.4
      vertex 16.7761 25.3874 9.4
    endloop
  endfacet
  facet normal 0 0 1
    outer loop
      vertex 16.555 25.3499 9.4
      vertex 16.555 21.4501 9.4
      vertex 16.7761 21.4126 9.4
    endloop
  endfacet
  facet normal -0 0 1
    outer loop
      vertex 16.3394 25.2878 9.4
      vertex 16.555 21.4501 9.4
      vertex 16.555 25.3499 9.4
    endloop
  endfacet
  facet normal 0 0 1
    outer loop
      vertex 16.3394 25.2878 9.4
      vertex 16.3394 21.5122 9.4
      vertex 16.555 21.4501 9.4
    endloop
  endfacet
  facet normal -0 0 1
    outer loop
      vertex 16.1322 25.2019 9.4
      vertex 16.3394 21.5122 9.4
      vertex 16.3394 25.2878 9.4
    endloop
  endfacet
  facet normal 0 0 1
    outer loop
      vertex 16.1322 25.2019 9.4
      vertex 16.1322 21.5981 9.4
      vertex 16.3394 21.5122 9.4
    endloop
  endfacet
  facet normal -0 0 1
    outer loop
      vertex 15.9359 25.0934 9.4
      vertex 16.1322 21.5981 9.4
      vertex 16.1322 25.2019 9.4
    endloop
  endfacet
  facet normal 0 0 1
    outer loop
      vertex 15.9359 25.0934 9.4
      vertex 15.9359 21.7066 9.4
      vertex 16.1322 21.5981 9.4
    endloop
  endfacet
  facet normal -0 0 1
    outer loop
      vertex 15.753 24.9637 9.4
      vertex 15.9359 21.7066 9.4
      vertex 15.9359 25.0934 9.4
    endloop
  endfacet
  facet normal 0 0 1
    outer loop
      vertex 15.753 24.9637 9.4
      vertex 15.753 21.8363 9.4
      vertex 15.9359 21.7066 9.4
    endloop
  endfacet
  facet normal -0 0 1
    outer loop
      vertex 15.5858 24.8142 9.4
      vertex 15.753 21.8363 9.4
      vertex 15.753 24.9637 9.4
    endloop
  endfacet
  facet normal 0 0 1
    outer loop
      vertex 15.5858 24.8142 9.4
      vertex 15.5858 21.9858 9.4
      vertex 15.753 21.8363 9.4
    endloop
  endfacet
  facet normal -0 0 1
    outer loop
      vertex 15.4363 24.647 9.4
      vertex 15.5858 21.9858 9.4
      vertex 15.5858 24.8142 9.4
    endloop
  endfacet
  facet normal 0 0 1
    outer loop
      vertex 15.4363 24.647 9.4
      vertex 15.4363 22.153 9.4
      vertex 15.5858 21.9858 9.4
    endloop
  endfacet
  facet normal -0 0 1
    outer loop
      vertex 15.3066 24.4641 9.4
      vertex 15.4363 22.153 9.4
      vertex 15.4363 24.647 9.4
    endloop
  endfacet
  facet normal 0 0 1
    outer loop
      vertex 15.3066 24.4641 9.4
      vertex 15.3066 22.3359 9.4
      vertex 15.4363 22.153 9.4
    endloop
  endfacet
  facet normal -0 0 1
    outer loop
      vertex 15.1981 24.2678 9.4
      vertex 15.3066 22.3359 9.4
      vertex 15.3066 24.4641 9.4
    endloop
  endfacet
  facet normal 0 0 1
    outer loop
      vertex 15.1981 24.2678 9.4
      vertex 15.1981 22.5322 9.4
      vertex 15.3066 22.3359 9.4
    endloop
  endfacet
  facet normal -0 0 1
    outer loop
      vertex 15.1122 24.0606 9.4
      vertex 15.1981 22.5322 9.4
      vertex 15.1981 24.2678 9.4
    endloop
  endfacet
  facet normal 0 0 1
    outer loop
      vertex 15.1122 24.0606 9.4
      vertex 15.1122 22.7394 9.4
      vertex 15.1981 22.5322 9.4
    endloop
  endfacet
  facet normal -0 0 1
    outer loop
      vertex 15.0501 23.845 9.4
      vertex 15.1122 22.7394 9.4
      vertex 15.1122 24.0606 9.4
    endloop
  endfacet
  facet normal 0 0 1
    outer loop
      vertex 15.0501 23.845 9.4
      vertex 15.0501 22.955 9.4
      vertex 15.1122 22.7394 9.4
    endloop
  endfacet
  facet normal -0 0 1
    outer loop
      vertex 15.0126 23.6239 9.4
      vertex 15.0501 22.955 9.4
      vertex 15.0501 23.845 9.4
    endloop
  endfacet
  facet normal 0 0 1
    outer loop
      vertex 15.0126 23.6239 9.4
      vertex 15.0126 23.1761 9.4
      vertex 15.0501 22.955 9.4
    endloop
  endfacet
  facet normal 0 -0 1
    outer loop
      vertex 15.0126 23.1761 9.4
      vertex 15.0126 23.6239 9.4
      vertex 15 23.4 9.4
    endloop
  endfacet
endsolid OpenSCAD_Model
